<svg width="249" height="113" viewBox="0 0 249 113" fill="none" xmlns="http://www.w3.org/2000/svg"><path d="M47.166 65.903h11.023c3.803 0 7.046 1.36 9.728 4.08 2.7 2.703 4.051 5.97 4.051 9.802s-1.35 7.108-4.051 9.829c-2.682 2.702-5.925 4.053-9.728 4.053h-5.512v11.106h-5.511v-38.87zm5.511 5.552v16.66h5.512c2.278 0 4.225-.815 5.842-2.444s2.425-3.59 2.425-5.886c0-2.295-.808-4.257-2.425-5.886-1.617-1.63-3.564-2.444-5.842-2.444h-5.512zm185.264-5.552c3.059 0 5.668 1.082 7.824 3.248 2.157 2.166 3.235 4.785 3.235 7.857h-5.53c0-1.536-.543-2.84-1.631-3.914-1.069-1.093-2.369-1.638-3.898-1.638-1.53 0-2.839.545-3.927 1.638-1.069 1.073-1.603 2.378-1.603 3.914 0 2.407 2.765 4.582 8.294 6.525 5.53 1.944 8.295 5.322 8.295 10.134 0 3.073-1.078 5.692-3.235 7.858-2.156 2.165-4.765 3.248-7.824 3.248-3.06 0-5.668-1.083-7.825-3.248-2.157-2.166-3.235-4.785-3.235-7.858h5.53c0 1.537.534 2.85 1.603 3.943 1.088 1.073 2.397 1.61 3.927 1.61 1.529 0 2.829-.537 3.898-1.61 1.088-1.092 1.631-2.406 1.631-3.943 0-2.406-2.765-4.58-8.294-6.524-5.53-1.944-8.295-5.322-8.295-10.135 0-3.072 1.078-5.691 3.235-7.857 2.157-2.166 4.765-3.248 7.825-3.248z" fill="#FF00C1" fill-opacity=".77"/><path d="M206.138 71.456v16.658h5.523c2.283 0 4.234-.814 5.854-2.443s2.43-3.59 2.43-5.886c0-2.295-.81-4.257-2.43-5.886-1.62-1.63-3.571-2.444-5.854-2.444h-5.523zm0 18.574v14.743h-5.523v-38.87h11.046c3.811 0 7.06 1.36 9.748 4.08 2.706 2.703 4.059 5.97 4.059 9.802s-1.344 7.098-4.031 9.8c-1.436 1.445-3.029 2.509-4.778 3.194l11.93 11.994h-7.788L206.138 90.03zm-7.231-24.127v5.552h-19.354v16.66h19.354v5.552h-19.354v5.553h19.354v5.553h-24.884v-38.87h24.884zM152.962 93.69v11.083h-5.53v-38.79h5.53V88.15h13.824V65.984h5.53v38.789h-5.53V93.691h-13.824zm-16.671-22.234v33.317h-5.53V71.456h-9.677v-5.553h24.884v5.552h-9.677zm-35.943 7.122v26.08h-5.53v-47.05l19.355 34.246v-26.08h5.529v47.05l-19.354-34.246zm-27.279 26.195h-5.737l13.052-47.165 13.052 47.165H87.7l-7.316-25.721-7.315 25.721zM0 13.289h11.132c3.84 0 7.115 1.366 9.824 4.098 2.727 2.714 4.09 5.995 4.09 9.842 0 3.848-1.363 7.138-4.09 9.87-2.71 2.714-5.984 4.07-9.824 4.07H5.566v11.153H0V13.29zm5.566 5.576v16.729h5.566c2.3 0 4.267-.818 5.9-2.454 1.632-1.636 2.448-3.606 2.448-5.91 0-2.305-.816-4.276-2.448-5.911-1.633-1.636-3.6-2.454-5.9-2.454H5.566zm89.253-5.576h5.529v33.457h19.354v5.576H94.819V13.29zm51.149 0v5.576h-19.354v16.729h19.354v5.576h-19.354v5.576h19.354v5.576h-24.884V13.29h24.884zm-99.41 9.718c1.837-.025 3.573-1.258 4.353-1.334.78-.075 2.415 1.158 2.616 1.36-.855-.152-5.56 1.484-6.969-.026zm-7.422 6.466c-.629-1.987 1.761-1.107 1.761-1.107s-1.51-.1-1.76 1.107zm20.505-7.724c1.308 2.038 1.937 2.541 3.774 3.447 1.006.503 2.214.15 3.321-.83-2.44-.177-4.151-2.567-5.636-2.517 1.787-.452 2.768 1.938 6.14 2.013 1.132-1.207 2.088-3.094 2.515-5.359C65.478 21.07 61 20.24 61 20.24s-2.592-.654-4.755-.73c-.202 0 .93.252 1.308 1.108-.931-.806-2.692-1.259-2.818-1.259-2.214-.176-5.434-.452-8.806 2.592-.075.1-.654.529.327.755-1.056.05-.805-.302-.855-.277-.05.05-.05-.025-.1.025-1.435.982-4.127 2.089-5.284 3.397-.026.025.251.151.629.503-.277-.226-.83-.276-.856-.226-1.031.252-2.969 1.61-2.34 2.39.63.78.83 1.183 1.41 1.485.628 3.07 8.151 6.743 8.151 6.743-2.818-2.516 0-4.101-1.585-4.755.025-.026-1.434.025-1.61.478.125-.78 1.987-.705 2.038-.705 1.182-.604 5.887-.93 6.516-.554.88.554 2.793.83 3.346 2.92.503 1.912-.478 6.642-1.51 6.994.076.478.026.956-.98 1.107.704-.15.679-1.006.654-1.031-.604-1.51-2.215.83-4.957-.806.277.83 5.787 5.788 6.542 5.335.754-.453 1.51-1.36 1.987-1.787.478-.428 1.61-2.642 2.466-3.472 1.132-1.132 2.29-2.617 3.698-2.566 1.41.075 5.158-7.398 3.648-8.883-1.484-1.484-7.27-4.327-7.547-7.22l-.076-.051z" fill="#FF00C1" fill-opacity=".77"/><path d="M68.305 41.848L80.13 20.813c-4.403 1.686-10.29.654-10.29.654s-1.183 4.856-5.536 4.58c2.315 1.333 4.051 1.811 4.68 2.717.226.327.075 1.56-.327 3.07-.025.125 2.038.251 2.013.377-.026.1-2.164.176-2.19.277-.1.327-.2.654-.301 1.006-.025.076 1.887.151 1.837.252-.026.1-2.013.226-2.038.327-.101.277-.202.528-.302.805-.05.1 1.685.176 1.635.277-.05.1-1.862.226-1.887.327-.755 1.786-1.686 3.22-2.566 3.296-2.214.176-2.567.981-2.567.981l1.208 2.114h4.78l.026-.025zm-4.392.785h4.076l-2.616 4.127-1.46-4.127z" fill="#FF00C1" fill-opacity=".77"/><path d="M59.627 58.45c-15.146 0-27.424-12.279-27.424-27.426 0-15.147 12.278-27.426 27.424-27.426 15.146 0 27.424 12.279 27.424 27.426 0 15.147-12.278 27.426-27.424 27.426zm0-58.45C42.468 0 28.58 13.89 28.58 31.05s13.888 31.048 31.047 31.048c17.16 0 31.047-13.889 31.047-31.049S76.786 0 59.627 0z" fill="#FF00C1" fill-opacity=".77"/><path d="M81.265 20.813L65.918 48.465s-9.888 13.185-26.87-.905c0 0 8 10.593 21.913 9.536C74.9 56.039 81.87 46.93 84.435 38.98c2.566-7.951 1.66-15.978-1.66-19.752l-1.51 1.585z" fill="#FF00C1" fill-opacity=".77"/></svg>